<?xml version="1.0" encoding="utf-8"?>
<!-- Generator: Adobe Illustrator 25.2.0, SVG Export Plug-In . SVG Version: 6.00 Build 0)  -->
<svg version="1.1" id="Layer_1" xmlns="http://www.w3.org/2000/svg" xmlns:xlink="http://www.w3.org/1999/xlink" x="0px" y="0px"
	 viewBox="0 0 385 321.8" style="enable-background:new 0 0 385 321.8;" xml:space="preserve">
<g>
	<g>
		<path d="M132.3,56.7c-4.4,21.2-8.8,42.4-13.3,63.6c-4,19.2-8,39.3-19.2,55.6c-5.1,7.5-11.7,14.2-19.9,18.4
			c-7,3.5-14.8,5.1-22.8,4.8c-7.9-0.3-15.8-2.3-23.1-5.6c-7.2-3.2-14.5-7.7-19.9-13.4c-2.6-2.8-5.1-6.3-5.1-10.2
			c-0.1-4.1,2.4-7.6,5.2-10.2c3.1-2.8,6.8-5.1,10.6-7.1s7.7-3.9,11.8-5.5c16.1-6.4,33.5-9.1,51-10.4c19.1-1.3,38.3-1,57.5-1.1
			c22.2-0.1,44.3-0.1,66.5-0.2s44.3-0.1,66.5-0.2c22.2-0.1,44.3-0.1,66.5-0.2c5.4,0,10.8,0,16.1-0.1c1.2,0,2-1.4,1.8-2.4
			c-0.2-1.3-1.4-1.9-2.5-1.9c-22.8,0.1-45.5,0.2-68.2,0.2s-45.5,0.1-68.2,0.2s-45.5,0.2-68.2,0.2c-20.2,0.1-40.4-0.2-60.6,0.7
			c-18.3,1-36.6,3.2-53.6,8.9c-8.4,2.8-16.6,6.6-24.1,11.3C9.8,156.6,2.6,164,5.2,173.2c2.3,8.2,10.2,14.2,17.2,18.7
			c7.2,4.6,15.1,8.1,23.5,10c8.1,1.8,16.5,2.2,24.4,0.5c9-1.9,17-6.2,23.6-12.3c14.9-13.7,21.6-33.5,26.1-52.8
			c2.5-10.4,4.5-20.9,6.7-31.4c2.3-10.9,4.5-21.7,6.8-32.6c1.1-5.3,2.2-10.6,3.4-16c0.2-1.2-0.9-2.3-2-2.5
			C133.5,54.7,132.5,55.6,132.3,56.7L132.3,56.7z"/>
	</g>
</g>
<g>
	<g>
		<path d="M141.7,136.7c-5.7,12.5-11.4,24.9-17.1,37.4c-1,2.3,2.5,4.1,3.9,2.2c8.1-10.4,9.5-24,14.1-36c1.3-3.4,2.8-6.5,4.9-9.4
			c-1.2-0.2-2.5-0.4-3.9-0.5c3.5,7.7,6.5,15.6,8.8,23.7c0.6,2.2,3.3,2.5,4.3,0.6c3.5-6.7,7.1-13.4,10.6-20c-1.2,0.2-2.5,0.2-3.8,0.5
			c1.8,2.4,1.3,5.9,1.2,8.6c-0.1,4-0.2,8-0.3,11.9c-0.2,8-0.3,16-0.5,24c-0.1,4.5-0.2,9-0.3,13.5c0,1.2,0.8,2.3,2,2.5
			c1.1,0.2,2.4-0.7,2.4-1.9c0.4-16.6,0.7-33.3,1.1-49.9c0.1-3.9,0.3-8.1-2.2-11.4c-1.1-1.5-3.1-0.9-3.8,0.5
			c-3.5,6.7-7.1,13.4-10.6,20c1.4,0.2,2.8,0.4,4.3,0.6c-2.4-8.5-5.5-16.8-9.2-24.8c-0.7-1.5-2.8-1.9-3.9-0.5
			c-7.6,10.8-8.8,24.3-13.8,36.2c-1.3,3.3-3.1,6.4-5.3,9.2c1.3,0.7,2.6,1.5,3.9,2.2c5.7-12.5,11.4-24.9,17.1-37.4
			c0.5-1.1-0.2-2.4-1.3-2.9C143.3,135,142.2,135.6,141.7,136.7L141.7,136.7z"/>
	</g>
</g>
<g>
	<g>
		<path d="M187.2,165.7c-3-1.9-5.7-3.9-7.7-6.5c-0.6-0.7-0.8-1-1.1-1.7c-0.2-0.4-0.3-0.7-0.5-1c0,0-0.2-0.7-0.1-0.3
			c-0.1-0.2-0.1-0.4-0.2-0.7c-0.1-0.9-0.2-1.1-0.1-1.9c0.1-0.4,0.1-0.6,0.2-0.8c0.1-0.3,0.1-0.5,0.3-0.7c0.1-0.1,0.3-0.6,0.1-0.3
			c1.4-2.4,4.5-3.8,7.2-3.1c3.2,0.8,5.6,3.8,6.1,7c0.6,4-1.7,7.7-4.9,9.8c-1,0.6-1,2.1-0.3,3.1c0.8,1,2.1,1.1,3.2,0.4
			c4.2-2.6,6.9-7.4,6.6-12.5c-0.2-4.7-3.3-9.2-7.6-11.3c-4.1-2-9.2-1.1-12.3,2c-3.1,3.1-3.7,7.9-1.7,11.9c2.2,4.3,6.2,7.4,10.3,10
			c1.1,0.7,2.4,0.6,3.1-0.4C188.4,167.8,188.2,166.3,187.2,165.7L187.2,165.7z"/>
	</g>
</g>
<g>
	<g>
		<path d="M216.4,119.2c-4.2,18.8-8.6,37.5-13.3,56.1c-1.4,5.3-2.8,10.6-4.1,15.9c-0.3,1.1,0,2.1,1,2.7c1,0.5,2.2,0.4,2.9-0.5
			c8.2-11.5,6.8-26.7,12.9-39.1c1.3-2.6,3-5.3,5.4-6.8c1-0.6,2.2-1.1,3.2-0.7c0.2,0,0.5,0.3,0.8,0.5c0.5,0.6,0.7,1.4,0.9,2.2
			c1.5,6.9-1.8,13.4-3.7,19.7c-2.1,6.8-2.9,15.3,2.3,21.4c1.9,2.2,5.4-0.4,3.4-2.6c-4.4-5-3.2-12.3-1.4-18
			c2.2-6.8,5.4-14.1,3.5-21.6c-0.5-2-1.3-3.9-3.1-5c-1.5-1-3.2-1.3-4.9-1c-3.5,0.6-6.1,2.9-8.1,5.7c-4.2,6-6,13.3-7.4,20.3
			c-1.6,7.7-3,15.8-7.5,22.3c1.3,0.7,2.6,1.5,3.9,2.2c5-18.8,9.7-37.8,14-56.8c1.3-5.5,2.5-10.9,3.7-16.4c0.3-1.1-1-2.3-2-2.5
			C217.5,117.1,216.6,118,216.4,119.2L216.4,119.2z"/>
	</g>
</g>
<g>
	<g>
		<path d="M250.4,145.5c-6.5,4.7-13.3,9.6-17.3,16.7c-3.1,5.7-4.5,12.6-2.3,19.1c1.1,3.4,3.6,7.2,7.3,8.4c3.2,1,6.3,0.1,8.7-1.8
			c2.5-1.9,4.4-4.5,6-7.2c1.9-3.1,3.5-6.4,4.7-9.9c2.8-7.8,3.7-16.2,2.7-24.6c-1.2,0.6-2.4,1.4-3.5,2c0.6,0.4,0.9,0.9,1,1.6
			c0.2,0.9,0.2,1.9,0.1,2.9c-0.2,2.3-0.9,4.6-1.2,6.9c-0.7,5.2-0.5,10.6,0.7,15.8c0.6,2.5,1.2,5.5,3,7.5c1.8,1.9,4.5,2.5,6.8,1.5
			c2-0.7,3.8-2.3,5.1-4.1c1.7-2.3,3.1-4.8,4.4-7.2c2.8-5.6,4.6-11.8,5.4-18.2c-1.1,0.5-2.3,1-3.5,1.4c2.5,2.1,4.4,4.9,5.3,8
			c0.3,1.2,1.3,2,2.5,1.9c2.4-0.2,3.9-2,4.7-4.1c0.4-0.9,0.7-1.8,1.2-2.8c0.2-0.4,0.4-0.7,0.6-1s-0.3,0.3,0.2-0.2
			c0.1-0.1,0.5-0.3,0.3-0.2c0.4-0.2,0.8-0.2,1.2-0.2c0.8,0.1,1,0.1,1.8,0.6c-0.3-0.2,0.1,0.1,0.1,0.1c0.1,0.1,0.3,0.2,0.4,0.3
			s0.3,0.2,0.1,0.1c0.1,0.1,0.3,0.3,0.4,0.5c0.1,0.1,0.2,0.2,0.2,0.4c0,0.1,0.1,0.6,0.1,0.7c-0.2,2.2,2.6,3.3,4.1,1.6
			c1.1-1.3,2.3-2.9,4-3.6c1.1-0.5,2.6-0.5,3.5,0.6c1.8,2.3,5.2-0.4,3.4-2.6c-1.9-2.4-5.1-3.1-7.8-2.3c-2.8,0.8-4.9,3.1-6.7,5.3
			c1.3,0.5,2.6,1.1,4.1,1.6c0.3-4.5-4.2-7.9-8.5-7.5c-2.5,0.2-4.1,1.7-5.2,3.8c-0.6,1.1-1,2.2-1.5,3.3c-0.2,0.4-0.4,0.9-0.7,1.2
			c-0.1,0.1-0.3,0.2-0.6,0.2c0.9,0.6,1.7,1.3,2.5,1.9c-1.2-4.3-3.6-8-7.1-10.9c-1.4-1.1-3.3-0.1-3.5,1.4c-0.6,5.2-2,10.2-4.2,15
			c-1,2.3-2.2,4.5-3.6,6.5c-1.1,1.6-2.2,3.2-3.8,4.2c-0.5,0.3-1.1,0.5-1.5,0.5c-0.6,0-1.2-0.7-1.6-1.4c-1.1-2.2-1.5-4.6-1.9-7
			c-0.7-4.7-0.7-9.5,0.2-14.1c0.8-4.4,2.3-10-2.1-13.3c-1.7-1.2-3.7,0.1-3.5,2c0.7,6.4,0.2,12.8-1.5,19c-1.6,5.8-4.2,11.8-8.1,16.4
			c-1.4,1.7-3.3,3.3-5.4,3.6c-2.7,0.3-4.7-2.3-5.7-4.7c-2.2-5.1-1.3-10.8,1-15.5c3.5-7.1,10.5-11.9,16.8-16.5
			C255.5,147.4,252.7,143.9,250.4,145.5L250.4,145.5z"/>
	</g>
</g>
<g>
	<g>
		<path d="M321.8,129.7c-4.1,18.9-7.7,38.1-10.5,57.3c-0.8,5.4-1.6,10.8-2.3,16.2c-0.4,2.7,4,3.3,4.4,0.6
			c2.6-19.3,5.7-38.5,9.6-57.5c1.1-5.3,2.2-10.7,3.4-16c0.3-1.1-1-2.3-2-2.5C322.9,127.7,322.1,128.6,321.8,129.7L321.8,129.7z"/>
	</g>
</g>
<g>
	<g>
		<path d="M317.2,172.7c10.1-9.2,19-19.6,26.4-31.2c0.6-1,0.5-2.3-0.5-3.1c-0.9-0.7-2.4-0.6-3.1,0.4c-7.1,11.3-15.6,21.5-25.5,30.4
			c-0.8,0.8-1.1,2.1-0.3,3.1C314.7,173.2,316.3,173.5,317.2,172.7L317.2,172.7z"/>
	</g>
</g>
<g>
	<g>
		<path d="M320.1,171.4c2.3,1.7,4.9-1.7,2.6-3.4C320.3,166.1,317.7,169.6,320.1,171.4L320.1,171.4z"/>
	</g>
</g>
<g>
	<g>
		<path d="M320.1,171.4c2.3,1.7,4.9-1.7,2.6-3.4C320.3,166.1,317.7,169.6,320.1,171.4L320.1,171.4z"/>
	</g>
</g>
<g>
	<g>
		<path d="M320,168.3c1.9,7.3,4.8,14.4,8.6,21c3.8,6.6,8.4,12.9,14.3,18.1c5.5,4.8,12.5,8.4,19.9,8.3c6.2,0,12.4-2.5,16.1-7.3
			c3.6-4.6,4.1-10.8,1.7-16.3c-2.3-5.3-6.9-9.6-12.2-12c-6-2.7-12.9-2.4-18.9-0.8c-6.7,1.8-12.6,5.5-18,9.7
			c-6.3,4.8-11.9,10.4-18.5,15c-5.3,3.7-11.1,6.6-17.2,8.9c-12.4,4.7-25.8,6.7-39.1,7.5c-14.2,0.9-28.4,0.5-42.6,0.3
			c-16.8-0.3-33.6-0.6-50.4-1.3c-16.5-0.7-33.1-1.5-49.5-3.5c-14.2-1.8-29.6-5.9-38.8-17.9c-2-2.7-3.5-5.6-4.6-8.8
			c-0.4-1.1-1.9-1.6-2.9-1.2c-1.2,0.5-1.5,1.7-1.1,2.8c4.4,13.6,17.7,22.4,30.9,26.3c7.5,2.2,15,3.2,22.7,3.9
			c8.2,0.8,16.3,1.4,24.4,1.9c16.3,1,32.6,1.5,48.8,1.9c15.1,0.3,30.3,0.7,45.5,0.7c13.3-0.1,26.7-0.7,39.7-3.2
			c12.8-2.4,25.3-6.9,36.1-14.1c11.8-8,20.9-19.9,35.1-24.3c5.5-1.7,11.8-2,17.3,0.6c4.5,2.2,8.4,6.1,9.8,10.8
			c1.6,5.2-0.6,10.2-4.9,13.1c-4.6,3.2-10.9,3.7-16.5,1.8c-7-2.4-12.5-7.6-16.9-13.3c-4.6-5.8-8.3-12.2-11.1-19
			c-1.4-3.3-2.5-6.6-3.4-10.1c-0.3-1.2-1.3-2-2.5-1.9C320.8,166,319.7,167.1,320,168.3L320,168.3z"/>
	</g>
</g>
<g>
	<g>
		<path d="M67.9,187.4C60.6,175.5,54.6,163,50,150.1c-0.4-1.1-1.9-1.6-2.9-1.2c-1.1,0.5-1.5,1.7-1.1,2.8
			c4.7,13.4,10.9,26.2,18.5,38.3c0.6,1,2.3,1.2,3.2,0.4C68.5,189.7,68.6,188.4,67.9,187.4L67.9,187.4z"/>
	</g>
</g>
</svg>
